<?xml version="1.0" standalone="no"?>
<!DOCTYPE svg PUBLIC "-//W3C//DTD SVG 20010904//EN"
 "http://www.w3.org/TR/2001/REC-SVG-20010904/DTD/svg10.dtd">
<svg version="1.0" xmlns="http://www.w3.org/2000/svg"
 width="500.000000pt" height="500.000000pt" viewBox="0 0 500.000000 500.000000"
 preserveAspectRatio="xMidYMid meet">
<metadata>
Created by potrace 1.11, written by Peter Selinger 2001-2013
</metadata>
<g transform="translate(0.000000,500.000000) scale(0.100000,-0.100000)"
fill="#000000" stroke="none">
<path d="M1839 4319 c0 -8 -1 -706 -1 -1551 -1 -1473 -1 -1539 17 -1558 24
-26 79 -26 105 0 20 20 20 33 20 818 l0 797 263 99 c144 55 267 102 272 105 6
3 15 6 20 8 11 2 609 230 640 243 11 5 171 66 355 136 184 70 338 130 342 133
6 5 -1058 416 -1762 681 -25 10 -88 34 -140 54 -127 50 -130 51 -131 35z"/>
<path d="M2208 1842 c-44 -2 -68 -7 -69 -15 0 -7 -1 -102 -1 -211 -1 -172 1
-201 15 -210 9 -6 34 -22 56 -35 51 -31 85 -91 77 -135 -7 -36 -60 -97 -103
-119 -95 -49 -246 -72 -360 -56 -210 31 -328 130 -283 239 13 31 67 80 112
100 l26 12 -1 179 c0 157 -2 179 -16 179 -29 0 -284 -68 -361 -95 -513 -187
-632 -465 -295 -692 143 -96 425 -198 670 -242 33 -6 70 -13 81 -15 62 -12
224 -33 319 -41 39 -4 93 -8 120 -11 68 -7 514 -7 600 0 333 25 594 71 830
146 105 34 129 43 235 93 189 90 304 210 314 330 12 146 -146 300 -419 407
-172 67 -460 139 -628 156 -34 4 -64 8 -67 10 -3 1 -44 6 -90 10 -47 3 -96 8
-110 11 -32 5 -564 10 -652 5z m1008 -410 c54 -28 94 -76 94 -112 0 -40 -50
-95 -108 -117 -63 -24 -193 -24 -243 0 -102 50 -129 127 -66 189 48 48 107 66
202 64 60 -1 91 -7 121 -24z"/>
</g>
</svg>
